<svg height="1024" legacy-metrics="false" node-id="1" sillyvg="true" template-height="1024" template-width="1024" version="1.1" viewBox="0 0 1024 1024" width="1024" xmlns="http://www.w3.org/2000/svg" xmlns:xlink="http://www.w3.org/1999/xlink"><defs node-id="61"><clipPath id="clip0_609_4510" node-id="58"><path d="M 160.00 0.00 L 864.00 0.00 C 952.37 0.00 1024.00 71.63 1024.00 160.00 L 1024.00 864.00 C 1024.00 952.37 952.37 1024.00 864.00 1024.00 L 160.00 1024.00 C 71.63 1024.00 0.00 952.37 0.00 864.00 L 0.00 160.00 C -0.00 71.63 71.63 0.00 160.00 0.00 Z" fill="#000000" fill-rule="nonzero" node-id="64" stroke="none" target-height="1024" target-width="1024" target-x="0" target-y="0"></path></clipPath><linearGradient gradientUnits="userSpaceOnUse" id="paint0_linear_609_4510" node-id="24" x1="60.9524" x2="85.3333" y1="-121.905" y2="1170.29"><stop offset="0.210553" stop-color="#1b0e35"></stop><stop offset="0.378499" stop-color="#311d82"></stop></linearGradient><linearGradient gradientUnits="userSpaceOnUse" id="paint1_linear_609_4510" node-id="27" x1="512" x2="493.714" y1="512" y2="1298.29"><stop offset="0" stop-color="#470c92"></stop><stop offset="0.397692" stop-color="#3a16a3"></stop><stop offset="0.896307" stop-color="#140835"></stop></linearGradient><linearGradient gradientUnits="userSpaceOnUse" id="paint2_linear_609_4510" node-id="31" x1="280.381" x2="532.276" y1="542.476" y2="781.122"><stop offset="0" stop-color="#feffca"></stop><stop offset="0.527742" stop-color="#feffca" stop-opacity="0.17"></stop></linearGradient><linearGradient gradientUnits="userSpaceOnUse" id="paint3_linear_609_4510" node-id="34" x1="670.476" x2="155.078" y1="743.619" y2="558.009"><stop offset="0" stop-color="#ed82ff"></stop><stop offset="1" stop-color="#feffca" stop-opacity="0.46"></stop></linearGradient><linearGradient gradientUnits="userSpaceOnUse" id="paint4_linear_609_4510" node-id="37" x1="304.762" x2="530.286" y1="591.238" y2="505.905"><stop offset="0" stop-color="#ed82ff"></stop><stop offset="1" stop-color="#feffca" stop-opacity="0.46"></stop></linearGradient><linearGradient gradientUnits="userSpaceOnUse" id="paint5_linear_609_4510" node-id="40" x1="642.099" x2="815.887" y1="659.935" y2="582.554"><stop offset="0" stop-color="#ed82ff"></stop><stop offset="1" stop-color="#feffca" stop-opacity="0.46"></stop></linearGradient><linearGradient gradientUnits="userSpaceOnUse" id="paint6_linear_609_4510" node-id="43" x1="950.858" x2="-19.1293" y1="1030.09" y2="765.155"><stop offset="0.441667" stop-color="#120534"></stop><stop offset="0.915688" stop-color="#391468"></stop></linearGradient><linearGradient gradientUnits="userSpaceOnUse" id="paint7_linear_609_4510" node-id="46" x1="853.333" x2="164.571" y1="938.666" y2="743.619"><stop offset="0.320459" stop-color="#ffffff" stop-opacity="0.1"></stop><stop offset="0.969904" stop-color="#feffca" stop-opacity="0.5"></stop></linearGradient><linearGradient gradientUnits="userSpaceOnUse" id="paint8_linear_609_4510" node-id="49" x1="959.726" x2="-229.698" y1="1044.31" y2="1024.58"><stop offset="0" stop-color="#0a0221"></stop><stop offset="0.660468" stop-color="#2a1563"></stop></linearGradient><linearGradient gradientUnits="userSpaceOnUse" id="paint9_linear_609_4510" node-id="52" x1="27.4286" x2="24.381" y1="615.619" y2="780.191"><stop offset="0" stop-color="#09000e"></stop><stop offset="1" stop-color="#380156"></stop></linearGradient><linearGradient gradientUnits="userSpaceOnUse" id="paint10_linear_609_4510" node-id="55" x1="24.3808" x2="182.857" y1="694.857" y2="585.143"><stop offset="0.264182" stop-color="#361e7c"></stop><stop offset="0.895833" stop-color="#feffca" stop-opacity="0.5"></stop></linearGradient></defs><g clip-path="url(#clip0_609_4510)" id="sillyvg_g_0" node-id="136"><path d="M 160.00 0.00 L 864.00 0.00 C 952.37 0.00 1024.00 71.63 1024.00 160.00 L 1024.00 864.00 C 1024.00 952.37 952.37 1024.00 864.00 1024.00 L 160.00 1024.00 C 71.63 1024.00 0.00 952.37 0.00 864.00 L 0.00 160.00 C -0.00 71.63 71.63 0.00 160.00 0.00 Z" fill="url(#paint0_linear_609_4510)" fill-rule="nonzero" node-id="138" stroke="none" target-height="1024" target-width="1024" target-x="0" target-y="0"></path><path d="M 512.00 1024.00 C 794.77 1024.00 1024.00 794.77 1024.00 512.00 L 0.00 512.00 C 0.00 794.77 229.23 1024.00 512.00 1024.00 Z" fill="url(#paint1_linear_609_4510)" fill-rule="nonzero" node-id="140" stroke="none" target-height="512" target-width="1024" target-x="0" target-y="512"></path><path d="M 761.90 536.38 C 827.80 536.31 1267.81 512.00 1267.81 512.00 L 243.81 512.00 C 243.81 512.00 559.35 536.61 761.90 536.38 Z" fill="url(#paint2_linear_609_4510)" fill-opacity="0.4" fill-rule="nonzero" group-id="1" node-id="144" stroke-linecap="butt" stroke-opacity="0.4" stroke-width="1" target-height="24.380981" target-width="1024" target-x="243.81" target-y="512"></path><path d="M 792.38 750.93 C 919.22 760.66 1142.69 725.65 1195.79 680.73 C 1195.79 680.73 920.24 727.72 823.11 725.60 C 530.29 719.24 183.11 597.60 183.11 597.60 C 158.73 597.60 465.73 725.87 792.38 750.93 Z" fill="url(#paint3_linear_609_4510)" fill-opacity="0.4" fill-rule="nonzero" group-id="2" node-id="149" stroke-linecap="butt" stroke-opacity="0.4" stroke-width="1" target-height="154.96326" target-width="1014.02264" target-x="181.76738" target-y="597.604"></path><path d="M 638.76 571.84 C 404.48 604.12 148.43 557.48 181.85 547.84 C 181.85 547.84 442.69 569.46 638.76 571.84 Z" fill="url(#paint4_linear_609_4510)" fill-opacity="0.4" fill-rule="nonzero" group-id="3" node-id="154" stroke-linecap="butt" stroke-opacity="0.4" stroke-width="1" target-height="35.18573" target-width="459.87973" target-x="178.88528" target-y="547.841"></path><path d="M 896.13 611.89 C 950.86 652.19 469.33 633.90 548.57 627.81 C 627.81 621.72 810.67 635.84 896.13 611.89 Z" fill="url(#paint5_linear_609_4510)" fill-opacity="0.4" fill-rule="nonzero" group-id="4" node-id="159" stroke-linecap="butt" stroke-opacity="0.4" stroke-width="1" target-height="25.356384" target-width="360.68994" target-x="539.7747" target-y="611.892"></path><path d="M 1025.68 905.15 C 945.37 1082.86 715.44 1221.88 507.76 1221.88 C 361.91 1221.88 189.91 1153.44 72.28 1051.08 C 46.38 1028.54 17.43 984.23 -2.89 943.74 C -22.44 904.77 -19.47 800.38 -5.11 788.23 C 47.98 743.30 153.18 735.24 280.02 744.97 C 606.67 770.03 749.48 902.59 1025.68 902.59 L 1025.68 905.15 Z" fill="url(#paint6_linear_609_4510)" fill-rule="nonzero" node-id="162" stroke="none" target-height="480.58258" target-width="1042.3982" target-x="-16.718195" target-y="741.2974"></path><path d="M 1008.35 938.98 C 1014.71 927.88 1020.51 916.60 1025.68 905.15 L 1025.68 902.59 C 884.13 902.59 777.62 867.77 663.45 830.46 C 554.83 794.95 439.27 757.18 280.02 744.97 C 153.18 735.24 47.98 743.30 -5.11 788.23 L -5.11 812.61 C 47.98 767.68 153.18 759.62 280.02 769.35 C 439.27 781.57 554.83 831.52 663.45 867.03 C 772.91 902.81 875.34 936.28 1008.35 938.98 Z" fill="url(#paint7_linear_609_4510)" fill-opacity="0.45" fill-rule="nonzero" group-id="5" node-id="166" stroke-linecap="butt" stroke-opacity="0.45" stroke-width="1" target-height="197.68451" target-width="1030.7938" target-x="-5.11377" target-y="741.2975"></path><path d="M 1030.96 908.34 C 984.78 1139.02 752.23 1352.66 508.09 1409.02 C 336.64 1448.60 115.88 1366.06 -50.17 1277.66 C -86.73 1258.19 -132.79 1213.97 -167.66 1171.89 C -201.22 1131.38 -201.81 1047.54 -188.23 1029.36 C -138.00 962.14 -40.79 884.43 110.95 861.45 C 501.74 802.25 587.77 993.06 1030.26 905.32 L 1030.96 908.34 Z" fill="url(#paint8_linear_609_4510)" fill-rule="nonzero" node-id="169" stroke="none" target-height="569.3424" target-width="1227.5009" target-x="-196.54086" target-y="849.8297"></path><path d="M -8.03 825.22 L 146.29 707.05 L -8.03 707.05 L -8.03 825.22 Z" fill="#150529" fill-opacity="0.5" fill-rule="nonzero" node-id="171" stroke="none" target-height="118.176025" target-width="154.31725" target-x="-8.03125" target-y="707.048"></path><path d="M 1212.95 402.29 C 1177.94 402.29 1158.10 384.00 1115.43 384.00 C 1093.65 384.00 1255.62 436.93 1212.95 457.14 C 1173.35 471.45 981.33 459.07 902.10 457.14 C 822.86 455.22 755.81 512.00 755.81 512.00 L 1109.33 518.10 L 1097.14 530.29 L 1383.62 542.48 L 1383.62 341.33 C 1383.62 341.33 1334.86 307.30 1304.38 335.24 C 1264.48 371.81 1247.96 402.29 1212.95 402.29 Z" fill="#1f1332" fill-rule="nonzero" node-id="173" stroke="none" target-height="218.2482" target-width="627.81" target-x="755.81" target-y="324.22983"></path><path d="M -170.67 402.29 C -135.66 402.29 -115.81 384.00 -73.14 384.00 C -51.36 384.00 -12.19 438.86 30.48 459.07 C 70.07 473.38 115.42 457.14 140.19 457.14 C 164.57 457.14 286.48 512.00 286.48 512.00 L -67.05 518.10 L -54.86 530.29 L -341.33 542.48 L -341.33 341.33 C -341.33 341.33 -292.57 307.30 -262.10 335.24 C -222.20 371.81 -205.68 402.29 -170.67 402.29 Z" fill="#1f1332" fill-rule="nonzero" node-id="175" stroke="none" target-height="218.2482" target-width="627.809" target-x="-341.333" target-y="324.22983"></path><path d="M 42.67 654.63 L 42.67 615.62 L 0.00 646.10 L 0.00 719.24 L 73.14 719.24 L 79.24 676.57 L 42.67 654.63 Z" fill="url(#paint9_linear_609_4510)" fill-rule="nonzero" node-id="177" stroke="none" target-height="103.61896" target-width="79.2381" target-x="0" target-y="615.619"></path><path d="M 42.67 655.60 L 42.67 615.62 L 128.00 646.10 L 146.29 707.05 L 73.14 719.24 L 79.24 676.57 L 42.67 655.60 Z" fill="url(#paint10_linear_609_4510)" fill-rule="nonzero" node-id="179" stroke="none" target-height="103.61896" target-width="103.61949" target-x="42.6665" target-y="615.619"></path><path d="M 694.86 256.00 C 694.86 303.13 656.65 341.33 609.52 341.33 C 562.40 341.33 524.19 303.13 524.19 256.00 C 524.19 208.87 562.40 170.67 609.52 170.67 C 656.65 170.67 694.86 208.87 694.86 256.00 Z" fill="#feffca" fill-rule="nonzero" node-id="181" stroke="none" target-height="170.66661" target-width="170.66663" target-x="524.1907" target-y="170.6667"></path><path d="M 877.71 213.33 C 877.71 216.70 874.99 219.43 871.62 219.43 C 868.25 219.43 865.52 216.70 865.52 213.33 C 865.52 209.97 868.25 207.24 871.62 207.24 C 874.99 207.24 877.71 209.97 877.71 213.33 Z" fill="#feffcf" fill-rule="nonzero" node-id="183" stroke="none" target-height="12.190491" target-width="12.19043" target-x="865.5238" target-y="207.23875"></path><path d="M 402.29 67.05 C 402.29 70.41 399.56 73.14 396.19 73.14 C 392.82 73.14 390.09 70.41 390.09 67.05 C 390.09 63.68 392.82 60.95 396.19 60.95 C 399.56 60.95 402.29 63.68 402.29 67.05 Z" fill="#feffcf" fill-rule="nonzero" node-id="185" stroke="none" target-height="12.190479" target-width="12.190491" target-x="390.09476" target-y="60.95216"></path><path d="M 304.76 249.91 C 304.76 253.27 302.03 256.00 298.67 256.00 C 295.30 256.00 292.57 253.27 292.57 249.91 C 292.57 246.54 295.30 243.81 298.67 243.81 C 302.03 243.81 304.76 246.54 304.76 249.91 Z" fill="#feffcf" fill-rule="nonzero" node-id="187" stroke="none" target-height="12.190491" target-width="12.190491" target-x="292.57175" target-y="243.80975"></path><path d="M 195.05 164.57 C 195.05 167.94 192.32 170.67 188.95 170.67 C 185.59 170.67 182.86 167.94 182.86 164.57 C 182.86 161.20 185.59 158.48 188.95 158.48 C 192.32 158.48 195.05 161.20 195.05 164.57 Z" fill="#feffcf" fill-rule="nonzero" node-id="189" stroke="none" target-height="12.190491" target-width="12.190475" target-x="182.85677" target-y="158.47575"></path><path d="M 743.62 128.00 C 743.62 131.37 740.89 134.10 737.52 134.10 C 734.16 134.10 731.43 131.37 731.43 128.00 C 731.43 124.63 734.16 121.90 737.52 121.90 C 740.89 121.90 743.62 124.63 743.62 128.00 Z" fill="#feffcf" fill-rule="nonzero" node-id="191" stroke="none" target-height="12.190483" target-width="12.190491" target-x="731.4288" target-y="121.90476"></path></g></svg>